# xmcd
#
# Track frame offsets:
#	150
#	22381
#	38736
#	52199
#	70515
#	86847
#	101686
#	122666
#	141340
#	162150
#	178769
#	190963
#	215578
#	232715
#	250151
#	268128
#	284906
#	302573
#
# Disc length: 4255 seconds
#
# Revision: 0
# Processed by: cddbd v1.5PL3 Copyright (c) Steve Scherf et al.
# Submitted via: audiograbber 1.82.01
#
DISCID=12109d12
DTITLE=Mirabela Dauer - Te iubesc, iubirea mea
DYEAR=1900
DGENRE=
TTITLE0=Insingurare
TTITLE1=De ce nu-mi spui ca ma iubesti
TTITLE2=Noapte de mai
TTITLE3=Zile bune, zile rele
TTITLE4=Mai badita, Petre
TTITLE5=Ce dor mi-a fost de ochii tai
TTITLE6=Si voi uita
TTITLE7=Melancolie
TTITLE8=Frunza mea albastra
TTITLE9=De-as fi avut
TTITLE10=Pentru tine, dragoste
TTITLE11=Te iubesc orice-ar spune lumea
TTITLE12=Suflet singur
TTITLE13=Stai, nu pleca!
TTITLE14=Te astept sa vii
TTITLE15=Dormeau pe-o frunza doua stele
TTITLE16=Te iubesc, iubirea mea
TTITLE17=Mai treci mama pe la noi
EXTD=
EXTT0=
EXTT1=
EXTT2=
EXTT3=
EXTT4=
EXTT5=
EXTT6=
EXTT7=
EXTT8=
EXTT9=
EXTT10=
EXTT11=
EXTT12=
EXTT13=
EXTT14=
EXTT15=
EXTT16=
EXTT17=
PLAYORDER=
